<svg width="1400" height="381" viewBox="0 0 1400 381" fill="none" xmlns="http://www.w3.org/2000/svg">
<path d="M1169.32 372.583V7.54639H1400V50.3875H1214.44V164.715H1369.58V207.556H1214.44V329.742H1400V372.583H1169.32Z" fill="white"/>
<path d="M979.645 372.583V50.3875H855.177V7.54639H1149.23V50.3875H1024.77V372.583H979.645Z" fill="white"/>
<path d="M716.067 380.188C690.211 380.188 666.889 375.794 646.102 367.006C625.484 358.218 608.415 345.712 594.895 329.488C581.545 313.095 572.841 293.745 568.785 271.437L615.429 264.086C621.344 287.069 633.596 305.068 652.186 318.081C670.945 330.925 692.999 337.346 718.349 337.346C734.742 337.346 749.529 334.811 762.711 329.742C776.062 324.503 786.624 317.067 794.398 307.434C802.172 297.801 806.059 286.393 806.059 273.212C806.059 265.1 804.623 258.171 801.75 252.425C799.046 246.51 795.243 241.524 790.342 237.468C785.61 233.243 780.202 229.695 774.118 226.822C768.034 223.949 761.697 221.583 755.106 219.724L662.072 192.092C651.932 189.05 642.131 185.248 632.667 180.685C623.203 175.953 614.753 170.123 607.317 163.194C599.881 156.096 593.966 147.646 589.572 137.844C585.178 127.873 582.981 116.128 582.981 102.608C582.981 80.9759 588.558 62.5551 599.712 47.3452C611.035 31.9663 626.329 20.221 645.595 12.109C664.861 3.99711 686.577 0.0256396 710.744 0.194626C735.249 0.363632 757.134 4.75759 776.4 13.3765C795.835 21.8264 811.889 33.9943 824.564 49.8802C837.408 65.766 846.027 84.7783 850.421 106.917L802.51 115.283C799.975 100.411 794.314 87.6513 785.526 77.0044C776.907 66.1885 766.091 57.9076 753.078 52.1617C740.065 46.2467 725.785 43.2047 710.237 43.0357C695.365 42.8667 681.93 45.2327 669.931 50.1337C657.932 55.0346 648.383 61.8791 641.286 70.667C634.188 79.2859 630.639 89.2568 630.639 100.58C630.639 111.734 633.85 120.775 640.272 127.704C646.693 134.464 654.552 139.872 663.847 143.928C673.311 147.815 682.521 151.026 691.478 153.561L760.936 173.587C768.879 175.784 778.005 178.826 788.314 182.713C798.792 186.6 808.932 192.092 818.734 199.19C828.536 206.119 836.648 215.414 843.07 227.075C849.492 238.567 852.703 253.101 852.703 270.677C852.703 288.252 849.154 303.885 842.056 317.574C835.127 331.263 825.409 342.754 812.903 352.049C800.398 361.175 785.864 368.104 769.302 372.836C752.74 377.737 734.995 380.188 716.067 380.188Z" fill="white"/>
<path d="M264.091 372.583L386.277 7.54639H449.145L571.331 372.583H524.433L410.106 33.9101H424.302L310.988 372.583H264.091ZM322.903 287.154V244.82H512.519V287.154H322.903Z" fill="white"/>
<path d="M122.186 372.583L0 7.54639H46.8971L153.113 324.672L260.342 7.54639H307.239L185.053 372.583H122.186Z" fill="white"/>
</svg>
